<?xml version="1.0"?>
<svg xmlns="http://www.w3.org/2000/svg" viewBox="0 0 213.82 40.32" fill="#0A0A0A">
  
  <path d="M0,40.32V0h12.01v4.93h-6.65v30.45h6.65v4.93H0Z"></path>
  <path d="M21.4,35.6l-3.6-23.59h4.46l1.97,14.46c.11.83.22,1.74.32,2.75s.18,1.83.24,2.49c.09-.66.2-1.49.34-2.49s.27-1.92.39-2.75l2.23-14.46h4.16l2.19,14.46c.11.83.24,1.75.39,2.77.14,1.02.26,1.85.34,2.51.06-.69.15-1.54.28-2.55.13-1.01.24-1.92.32-2.72l2.1-14.46h4.29l-3.69,23.59h-5.53l-2.06-14.54c-.11-.8-.24-1.69-.39-2.68-.14-.99-.26-1.79-.34-2.42-.09.63-.19,1.44-.32,2.42s-.26,1.88-.41,2.68l-2.15,14.54h-5.53Z"></path>
  <path d="M45.08,35.6v-4.89h8.24v-13.85h-7.16v-4.85h12.31v18.7h7.29v4.89h-20.67ZM55.46,8.06c-1.09,0-1.94-.28-2.57-.84s-.94-1.31-.94-2.25.31-1.69.94-2.25,1.49-.84,2.57-.84,1.94.28,2.57.84.94,1.31.94,2.25-.32,1.69-.94,2.25-1.49.84-2.57.84Z"></path>
  <path d="M83.17,35.6c-1.54,0-2.89-.31-4.05-.94-1.16-.63-2.07-1.52-2.72-2.68s-.99-2.49-.99-4.01V9.14h-7.55v-4.85h12.91v23.68c0,.86.25,1.54.75,2.04.5.5,1.18.75,2.04.75h7.12v4.85h-7.51Z"></path>
  <path d="M102.43,36.03c-2.34,0-4.24-.82-5.68-2.45-1.44-1.63-2.17-3.82-2.17-6.56v-6.39c0-2.77.71-4.98,2.14-6.61,1.43-1.63,3.33-2.44,5.7-2.44,1.94,0,3.49.55,4.63,1.65,1.14,1.1,1.72,2.61,1.72,4.53l-1.2-1.24h1.24l-.17-5.62v-6.61h5.36v31.31h-5.23v-4.5h-1.2l1.2-1.24c0,1.92-.57,3.42-1.72,4.52-1.14,1.1-2.69,1.65-4.63,1.65ZM104.32,31.4c1.37,0,2.44-.41,3.2-1.22.76-.82,1.14-1.95,1.14-3.41v-5.92c0-1.46-.38-2.59-1.14-3.41-.76-.82-1.82-1.22-3.2-1.22s-2.45.4-3.22,1.2c-.77.8-1.16,1.95-1.16,3.43v5.92c0,1.49.39,2.63,1.16,3.43.77.8,1.84,1.2,3.22,1.2Z"></path>
  <path d="M122.25,40.32v-4.93h6.65V4.93h-6.65V0h12.01v40.32h-12.01Z"></path>
  <path d="M157.8,35.6c-1.54,0-2.89-.31-4.05-.94-1.16-.63-2.07-1.52-2.72-2.68s-.99-2.49-.99-4.01V9.14h-7.55v-4.85h12.91v23.68c0,.86.25,1.54.75,2.04.5.5,1.18.75,2.04.75h7.12v4.85h-7.51Z"></path>
  <path d="M176.46,36.03c-2.43,0-4.35-.64-5.75-1.93-1.4-1.29-2.1-3.02-2.1-5.19,0-2.32.77-4.1,2.32-5.36,1.54-1.26,3.73-1.89,6.56-1.89h5.88v-2.02c0-1.14-.37-2.04-1.12-2.68-.74-.64-1.76-.97-3.05-.97-1.14,0-2.11.26-2.9.77-.79.51-1.25,1.22-1.39,2.1h-5.23c.26-2.23,1.26-4,3-5.32,1.74-1.32,3.97-1.97,6.69-1.97,2.89,0,5.17.72,6.84,2.17,1.67,1.44,2.51,3.4,2.51,5.86v16h-5.19v-4.12h-.86l.86-1.16c0,1.74-.64,3.13-1.93,4.16-1.29,1.03-3,1.54-5.15,1.54ZM178.22,32c1.51,0,2.75-.39,3.71-1.16.96-.77,1.44-1.77,1.44-3v-2.87h-5.79c-1.09,0-1.96.32-2.62.94-.66.63-.99,1.46-.99,2.49,0,1.12.37,1.99,1.11,2.64.74.64,1.79.96,3.13.96Z"></path>
  <path d="M205.97,36.03c-1.95,0-3.49-.55-4.63-1.65-1.14-1.1-1.72-2.61-1.72-4.52l1.2,1.24h-1.2v4.5h-5.23V4.29h5.36v6.61l-.17,5.62h1.24l-1.2,1.24c0-1.92.57-3.42,1.72-4.53,1.14-1.1,2.69-1.65,4.63-1.65,2.37,0,4.27.82,5.7,2.44,1.43,1.63,2.15,3.83,2.15,6.61v6.39c0,2.75-.72,4.93-2.15,6.56-1.43,1.63-3.33,2.45-5.7,2.45ZM204.09,31.4c1.37,0,2.45-.4,3.22-1.2.77-.8,1.16-1.94,1.16-3.43v-5.92c0-1.49-.39-2.63-1.16-3.43-.77-.8-1.84-1.2-3.22-1.2s-2.4.41-3.17,1.22-1.16,1.95-1.16,3.41v5.92c0,1.46.39,2.6,1.16,3.41.77.81,1.83,1.22,3.17,1.22Z"></path>
</svg>